{"title":"Radiohead - OK Computer (24-bit/96KHz)","uid":14056691,"size":1192185453,"categoryP":"audio","categoryS":"flac","magnet":"?xt=urn:btih:dd6713a5362cdd035dfbd7c339814bae738acbf4&amp;dn=Radiohead+-+OK+Computer+%2824-bit%2F96KHz%29&amp;tr=udp%3A%2F%2Ftracker.leechers-paradise.org%3A6969&amp;tr=udp%3A%2F%2Fzer0day.ch%3A1337&amp;tr=udp%3A%2F%2Fopen.demonii.com%3A1337&amp;tr=udp%3A%2F%2Ftracker.coppersurfer.tk%3A6969&amp;tr=udp%3A%2F%2Fexodus.desync.com%3A6969","seeders":16,"leechers":2,"uploader":"Snowcolors","files":13,"time":1459120303,"description":"Got this from a friend (secret source! :). \r\nSource says this is from a &quot;positive vinyl&quot; or &quot;mother&quot; (more info https://en.wikipedia.org/wiki/Production_of_gramophone_records)\r\n\r\nAnyway, this rip sound very very very good, so enjoy it!\r\n\r\nDR         Peak         RMS     Duration Track\r\n--------------------------------------------------------------------------------\r\nDR11      -3.01 dB   -15.78 dB      4:44 01-Airbag\r\nDR9       -4.11 dB   -16.72 dB      6:24 02-Paranoid Android\r\nDR10      -2.88 dB   -14.32 dB      4:28 03-Subterranean Homesick Alien\r\nDR9       -4.29 dB   -18.02 dB      4:25 04-Exit Music (for a Film)\r\nDR11      -3.46 dB   -16.16 dB      4:58 05-Let Down\r\nDR10      -4.14 dB   -15.74 dB      4:22 06-Karma Police\r\nDR11      -6.21 dB   -20.05 dB      1:57 07-Fitter Happier\r\nDR10      -3.21 dB   -15.00 dB      3:50 08-Electioneering\r\nDR10      -2.69 dB   -15.90 dB      4:44 09-Climbing Up the Walls\r\nDR9       -4.30 dB   -15.81 dB      3:47 10-No Surprises\r\nDR10      -2.94 dB   -14.25 dB      4:17 11-Lucky\r\nDR10      -2.02 dB   -15.74 dB      5:24 12-The Tourist\r\n--------------------------------------------------------------------------------\r\n\r\nNumber of tracks:  12\r\nOfficial DR value: DR10 (CD only got DR7, better than vinyl rip in track 1 and 11 and less noise overall)","torrent":{"xt":"urn:btih:dd6713a5362cdd035dfbd7c339814bae738acbf4","amp;dn":"Radiohead+-+OK+Computer+%2824-bit%2F96KHz%29","amp;tr":["udp%3A%2F%2Ftracker.leechers-paradise.org%3A6969","udp%3A%2F%2Fzer0day.ch%3A1337","udp%3A%2F%2Fopen.demonii.com%3A1337","udp%3A%2F%2Ftracker.coppersurfer.tk%3A6969","udp%3A%2F%2Fexodus.desync.com%3A6969"],"infoHash":"dd6713a5362cdd035dfbd7c339814bae738acbf4","infoHashBuffer":{"type":"Buffer","data":[221,103,19,165,54,44,221,3,93,251,215,195,57,129,75,174,115,138,203,244]},"announce":[],"urlList":[]}}